<mxfile host="app.diagrams.net" modified="2024-03-28T15:30:39.726Z" agent="Mozilla/5.0 (Windows NT 10.0; Win64; x64) AppleWebKit/537.36 (KHTML, like Gecko) Chrome/121.0.0.0 Safari/537.36 OPR/107.0.0.0" version="24.2.0" etag="ZIj1xjZ2uDjMhHKJZtZN" type="github">
  <diagram name="Pagina-1" id="-63KWE2EBDfRpYx0gYa-">
    <mxGraphModel>
      <root>
        <mxCell id="0" />
        <mxCell id="1" parent="0" />
      </root>
    </mxGraphModel>
  </diagram>
</mxfile>
